<?xml version="1.0" encoding="UTF-8"?>
<svg xmlns="http://www.w3.org/2000/svg" width="344" height="112" viewBox="0 0 344 112" fill="none">
  <path d="M14.12 39.364C11.5893 39.364 9.30133 38.9307 7.256 38.064C5.24533 37.1973 3.65067 35.9493 2.472 34.32C1.29333 32.6907 0.686667 30.7667 0.652 28.548H8.452C8.556 30.0387 9.076 31.2173 10.012 32.084C10.9827 32.9507 12.3 33.384 13.964 33.384C15.6627 33.384 16.9973 32.9853 17.968 32.188C18.9387 31.356 19.424 30.2813 19.424 28.964C19.424 27.8893 19.0947 27.0053 18.436 26.312C17.7773 25.6187 16.9453 25.0813 15.94 24.7C14.9693 24.284 13.6173 23.8333 11.884 23.348C9.52667 22.6547 7.60267 21.9787 6.112 21.32C4.656 20.6267 3.39067 19.604 2.316 18.252C1.276 16.8653 0.756 15.028 0.756 12.74C0.756 10.5907 1.29333 8.71866 2.368 7.124C3.44267 5.52933 4.95067 4.316 6.892 3.484C8.83333 2.61733 11.052 2.184 13.548 2.184C17.292 2.184 20.3253 3.10267 22.648 4.94C25.0053 6.74266 26.3053 9.27333 26.548 12.532H18.54C18.4707 11.284 17.9333 10.2613 16.928 9.464C15.9573 8.632 14.6573 8.216 13.028 8.216C11.6067 8.216 10.4627 8.58 9.596 9.308C8.764 10.036 8.348 11.0933 8.348 12.48C8.348 13.4507 8.66 14.2653 9.284 14.924C9.94267 15.548 10.74 16.068 11.676 16.484C12.6467 16.8653 13.9987 17.316 15.732 17.836C18.0893 18.5293 20.0133 19.2227 21.504 19.916C22.9947 20.6093 24.2773 21.6493 25.352 23.036C26.4267 24.4227 26.964 26.2427 26.964 28.496C26.964 30.4373 26.4613 32.24 25.456 33.904C24.4507 35.568 22.9773 36.9027 21.036 37.908C19.0947 38.8787 16.7893 39.364 14.12 39.364ZM60.4715 10.192V39H53.1395V35.36C52.2035 36.608 50.9728 37.596 49.4475 38.324C47.9568 39.0173 46.3275 39.364 44.5595 39.364C42.3062 39.364 40.3128 38.896 38.5795 37.96C36.8462 36.9893 35.4768 35.5853 34.4715 33.748C33.5008 31.876 33.0155 29.6573 33.0155 27.092V10.192H40.2955V26.052C40.2955 28.34 40.8675 30.108 42.0115 31.356C43.1555 32.5693 44.7155 33.176 46.6915 33.176C48.7022 33.176 50.2795 32.5693 51.4235 31.356C52.5675 30.108 53.1395 28.34 53.1395 26.052V10.192H60.4715ZM74.9344 14.664C75.8704 13.1387 77.0837 11.9427 78.5744 11.076C80.0997 10.2093 81.8331 9.776 83.7744 9.776V17.42H81.8504C79.5624 17.42 77.8291 17.9573 76.6504 19.032C75.5064 20.1067 74.9344 21.9787 74.9344 24.648V39H67.6544V10.192H74.9344V14.664ZM86.8058 24.492C86.8058 21.58 87.3778 18.9973 88.5218 16.744C89.7005 14.4907 91.2778 12.7573 93.2538 11.544C95.2645 10.3307 97.5005 9.724 99.9618 9.724C102.111 9.724 103.983 10.1573 105.578 11.024C107.207 11.8907 108.507 12.9827 109.478 14.3V10.192H116.81V39H109.478V34.788C108.542 36.14 107.242 37.2667 105.578 38.168C103.949 39.0347 102.059 39.468 99.9098 39.468C97.4832 39.468 95.2645 38.844 93.2538 37.596C91.2778 36.348 89.7005 34.5973 88.5218 32.344C87.3778 30.056 86.8058 27.4387 86.8058 24.492ZM109.478 24.596C109.478 22.828 109.131 21.32 108.438 20.072C107.745 18.7893 106.809 17.8187 105.63 17.16C104.451 16.4667 103.186 16.12 101.834 16.12C100.482 16.12 99.2338 16.4493 98.0898 17.108C96.9458 17.7667 96.0098 18.7373 95.2818 20.02C94.5885 21.268 94.2418 22.7587 94.2418 24.492C94.2418 26.2253 94.5885 27.7507 95.2818 29.068C96.0098 30.3507 96.9458 31.3387 98.0898 32.032C99.2685 32.7253 100.517 33.072 101.834 33.072C103.186 33.072 104.451 32.7427 105.63 32.084C106.809 31.3907 107.745 30.42 108.438 29.172C109.131 27.8893 109.478 26.364 109.478 24.596ZM140.976 39L131.2 26.728V39H123.92V0.52H131.2V22.412L140.872 10.192H150.336L137.648 24.648L150.44 39H140.976ZM165.311 39.468C162.954 39.468 160.839 39.052 158.967 38.22C157.095 37.3533 155.605 36.192 154.495 34.736C153.421 33.28 152.831 31.668 152.727 29.9H160.059C160.198 31.0093 160.735 31.928 161.671 32.656C162.642 33.384 163.838 33.748 165.259 33.748C166.646 33.748 167.721 33.4707 168.483 32.916C169.281 32.3613 169.679 31.6507 169.679 30.784C169.679 29.848 169.194 29.1547 168.223 28.704C167.287 28.2187 165.779 27.6987 163.699 27.144C161.55 26.624 159.782 26.0867 158.395 25.532C157.043 24.9773 155.865 24.128 154.859 22.984C153.889 21.84 153.403 20.2973 153.403 18.356C153.403 16.7613 153.854 15.3053 154.755 13.988C155.691 12.6707 157.009 11.6307 158.707 10.868C160.441 10.1053 162.469 9.724 164.791 9.724C168.223 9.724 170.962 10.5907 173.007 12.324C175.053 14.0227 176.179 16.328 176.387 19.24H169.419C169.315 18.096 168.83 17.1947 167.963 16.536C167.131 15.8427 166.005 15.496 164.583 15.496C163.266 15.496 162.243 15.7387 161.515 16.224C160.822 16.7093 160.475 17.3853 160.475 18.252C160.475 19.2227 160.961 19.968 161.931 20.488C162.902 20.9733 164.41 21.476 166.455 21.996C168.535 22.516 170.251 23.0533 171.603 23.608C172.955 24.1627 174.117 25.0293 175.087 26.208C176.093 27.352 176.613 28.8773 176.647 30.784C176.647 32.448 176.179 33.9387 175.243 35.256C174.342 36.5733 173.025 37.6133 171.291 38.376C169.593 39.104 167.599 39.468 165.311 39.468ZM198.847 9.776C201.031 9.776 202.972 10.2613 204.671 11.232C206.37 12.168 207.687 13.572 208.623 15.444C209.594 17.2813 210.079 19.5 210.079 22.1V39H202.799V23.088C202.799 20.8 202.227 19.0493 201.083 17.836C199.939 16.588 198.379 15.964 196.403 15.964C194.392 15.964 192.798 16.588 191.619 17.836C190.475 19.0493 189.903 20.8 189.903 23.088V39H182.623V0.52H189.903V13.78C190.839 12.532 192.087 11.5613 193.647 10.868C195.207 10.14 196.94 9.776 198.847 9.776ZM215.13 24.492C215.13 21.58 215.702 18.9973 216.846 16.744C218.025 14.4907 219.602 12.7573 221.578 11.544C223.589 10.3307 225.825 9.724 228.286 9.724C230.435 9.724 232.307 10.1573 233.902 11.024C235.531 11.8907 236.831 12.9827 237.802 14.3V10.192H245.134V39H237.802V34.788C236.866 36.14 235.566 37.2667 233.902 38.168C232.273 39.0347 230.383 39.468 228.234 39.468C225.807 39.468 223.589 38.844 221.578 37.596C219.602 36.348 218.025 34.5973 216.846 32.344C215.702 30.056 215.13 27.4387 215.13 24.492ZM237.802 24.596C237.802 22.828 237.455 21.32 236.762 20.072C236.069 18.7893 235.133 17.8187 233.954 17.16C232.775 16.4667 231.51 16.12 230.158 16.12C228.806 16.12 227.558 16.4493 226.414 17.108C225.27 17.7667 224.334 18.7373 223.606 20.02C222.913 21.268 222.566 22.7587 222.566 24.492C222.566 26.2253 222.913 27.7507 223.606 29.068C224.334 30.3507 225.27 31.3387 226.414 32.032C227.593 32.7253 228.841 33.072 230.158 33.072C231.51 33.072 232.775 32.7427 233.954 32.084C235.133 31.3907 236.069 30.42 236.762 29.172C237.455 27.8893 237.802 26.364 237.802 24.596Z" fill="white"></path>
  <path d="M255.71 55.12V58.468H247.03V101H243.124V87.36C242.091 89.5507 240.52 91.3073 238.412 92.63C236.345 93.9113 233.824 94.552 230.848 94.552C228.079 94.552 225.619 93.9527 223.47 92.754C221.321 91.5553 219.626 89.8607 218.386 87.67C217.187 85.438 216.588 82.8547 216.588 79.92C216.588 77.1093 217.208 74.6293 218.448 72.48C219.688 70.2893 221.383 68.6153 223.532 67.458C225.723 66.2593 228.161 65.66 230.848 65.66C233.865 65.66 236.407 66.3213 238.474 67.644C240.541 68.9253 242.091 70.6407 243.124 72.79V58.468H210.202V55.12H255.71ZM231.778 91.328C234.299 91.328 236.407 90.77 238.102 89.654C239.797 88.538 241.057 87.1327 241.884 85.438C242.711 83.7433 243.124 82.0073 243.124 80.23V80.168C243.124 78.2667 242.711 76.4687 241.884 74.774C241.099 73.038 239.838 71.6327 238.102 70.558C236.407 69.442 234.299 68.884 231.778 68.884C229.711 68.884 227.81 69.3387 226.074 70.248C224.379 71.1573 223.015 72.4593 221.982 74.154C220.99 75.8073 220.494 77.75 220.494 79.982C220.494 82.2967 220.969 84.322 221.92 86.058C222.912 87.7527 224.255 89.0547 225.95 89.964C227.686 90.8733 229.629 91.328 231.778 91.328ZM260.842 101V58.468H252.1V55.12H273.49V58.468H264.748V101H260.842ZM325.887 58.468H317.145V101H313.239V58.468H300.095V76.944C300.095 80.54 299.103 83.454 297.119 85.686C295.135 87.8767 292.345 88.972 288.749 88.972C285.236 88.972 282.487 87.856 280.503 85.624C278.519 83.392 277.527 80.4987 277.527 76.944V58.468H269.901V55.12H325.887V58.468ZM296.251 58.468H281.371V77.316C281.371 79.7547 282.033 81.7593 283.355 83.33C284.719 84.8593 286.538 85.624 288.811 85.624C291.126 85.624 292.945 84.8593 294.267 83.33C295.59 81.8007 296.251 79.796 296.251 77.316V58.468ZM343.664 55.12V58.468H334.922V101H331.016V58.468H322.274V55.12H331.078V52.454C331.078 49.7673 330.541 47.556 329.466 45.82C328.433 44.0427 326.656 43.154 324.134 43.154C321.613 43.154 319.815 44.0427 318.74 45.82C317.624 47.556 317.066 49.7673 317.066 52.454V56.112H313.222V52.578C313.222 48.734 314.111 45.6547 315.888 43.34C317.624 40.984 320.373 39.806 324.134 39.806C327.937 39.806 330.686 40.9633 332.38 43.278C334.075 45.5927 334.922 48.6927 334.922 52.578V55.12H343.664Z" fill="white"></path>
  <path d="M197.89 86.2272C194.357 85.1582 191.393 82.7296 189.65 79.4755C187.908 76.2214 187.529 72.4083 188.597 68.8749M194.436 97.6478C180.77 93.5163 173.043 79.088 177.177 65.4207M190.982 109.068C171.009 103.027 159.715 81.9398 165.756 61.9664" stroke="white" stroke-width="5" stroke-linecap="round" stroke-linejoin="round"></path>
</svg>
